<svg width="840" height="1193" version="1.1" viewBox="0 0 840 1193" encoding="UTF-8" xmlns="http://www.w3.org/2000/svg"><rect x="0" y="0" height="100%" width="100%" fill="#ffffff"></rect><defs>
<g id="diaohao_fu" transform="translate(-50,-50)"><path d="m63.90001,57.81227l-8.81873,0l0,-1.70001l3.45433,0l0,-11.7568l-3.53561,1.04459l0,-1.80243l5.46599,-1.59762l0,14.11224l3.43402,0l0,1.70001l0,0.00001l0,0.00001z" fill="#1b1b1b"></path><rect height="2" width="11" y="46.85897" x="68" stroke-width="33" fill="#1b1b1b"></rect><rect height="2" width="11" y="51.32479" x="68" stroke-width="33" fill="#1b1b1b"></rect></g><g id="diaohao_zimu_c" transform="translate(-50,-50)"><path fill="#1b1b1b" d="m55.85,42.82703q-1.71571,-0.90955 -4.3203,-0.90955q-3.36943,0 -5.37457,2.13949t-2.00512,5.65363q0,3.76219 2.26351,6.06705t5.73631,2.30486q2.23251,0 3.70017,-0.64081l0,-2.10849q-1.67438,0.93021 -3.6795,0.93021q-2.60459,0 -4.25832,-1.73639t-1.65372,-4.69241q0,-2.81131 1.54002,-4.46502t4.02058,-1.65371q2.31519,0 4.03091,1.05424l0,-1.94311l0.00002,0.00001l0.00002,0z"></path></g><g id="paihao_xian" transform="translate(-50,-50)"><rect fill="#1b1b1b" stroke-width="33" stroke-linejoin="null" stroke-linecap="null" x="51" y="49" width="21" height="2"></rect></g><g id="shuzi_b_bian_4" transform="translate(-50,-50)"><path d="m54.96645,54.05346l-1.77282,0l0,3.1344l-2.55111,0l0,-3.1344l-5.60941,0l0,-2.02145l6.16115,-9.21987l1.99982,0l0,8.92801l1.7728,0l0,2.31331l-0.00044,0l0.00001,0zm-4.32348,-2.31331l0,-4.43158l-2.81056,4.43158l2.81056,0z" fill="black"></path></g><g id="shuzi_b_3" transform="translate(-50,-50)"><rect height="17.9" width="11.1" y="41.05" x="44.45" stroke-width="0" fill="#ffffff"></rect><path fill="black" d="m54.93183,45.6956c0,0.30541 -0.03266,0.61626 -0.09799,0.93421c-0.06533,0.31793 -0.16333,0.62716 -0.29398,0.92767c-0.13066,0.30051 -0.29398,0.58361 -0.48997,0.84929c-0.19599,0.26566 -0.42464,0.49868 -0.68596,0.69902c0.38327,0.20034 0.72298,0.45513 1.01915,0.76435c0.29561,0.30923 0.54441,0.65548 0.74475,1.03874c0.20035,0.38326 0.35278,0.79266 0.4573,1.2282c0.10453,0.43553 0.1568,0.87977 0.1568,1.33272c0,0.80138 -0.14809,1.53743 -0.44425,2.20814s-0.7012,1.24562 -1.21513,1.72415c-0.51393,0.47909 -1.12366,0.85146 -1.82923,1.11714s-1.46338,0.39851 -2.27293,0.39851c-0.81879,0 -1.56791,-0.13066 -2.24733,-0.39198c-0.67942,-0.26131 -1.26957,-0.62933 -1.76989,-1.10406c-0.50087,-0.47473 -0.89937,-1.04963 -1.19553,-1.7247c-0.29616,-0.67453 -0.46602,-1.42582 -0.50957,-2.25388l3.20061,0c0,0.39199 0.05443,0.76219 0.16332,1.11061c0.10888,0.34843 0.27003,0.6533 0.48343,0.91461c0.21342,0.26131 0.47691,0.4682 0.79049,0.62063c0.31358,0.15243 0.67506,0.22865 1.08447,0.22865c0.39198,0 0.74857,-0.06968 1.07141,-0.20905c0.3223,-0.13936 0.59668,-0.33319 0.82316,-0.58143c0.22647,-0.24825 0.40068,-0.54441 0.52263,-0.88848c0.12195,-0.34406 0.18293,-0.72026 0.18293,-1.13019c0,-0.41811 -0.06316,-0.80138 -0.18946,-1.1498c-0.12632,-0.34843 -0.31359,-0.64677 -0.56184,-0.89502c-0.24825,-0.24825 -0.55312,-0.44206 -0.91462,-0.58143c-0.36149,-0.13883 -0.78178,-0.20905 -1.26085,-0.20905l-1.3066,0l0,-2.60012l0.99301,0c0.8188,0 1.43073,-0.21559 1.83576,-0.64677c0.40505,-0.43117 0.60757,-1.01697 0.60757,-1.75736c0,-0.6533 -0.16986,-1.14708 -0.50957,-1.48299c-0.33973,-0.33536 -0.82317,-0.50304 -1.45033,-0.50304c-1.29788,0 -2.03828,0.83622 -2.22121,2.50811l-3.16195,0c0.09582,-0.83621 0.29562,-1.57227 0.60104,-2.20814c0.30487,-0.63533 0.69249,-1.1694 1.16286,-1.60057c0.47037,-0.43118 1.00988,-0.75566 1.62017,-0.97342c0.60974,-0.21777 1.26303,-0.32664 1.95988,-0.32664c0.78396,0 1.4917,0.11324 2.12321,0.33971c0.63153,0.22647 1.17158,0.54441 1.62017,0.9538c0.4486,0.4094 0.79485,0.89502 1.03874,1.45685c0.24335,0.56292 0.3653,1.18356 0.3653,1.86299z"></path></g><g id="shuzi_b_2" transform="translate(-50,-50)"><rect height="17.9" width="11.1" y="41.05" x="44.45" stroke-width="0" fill="#ffffff"></rect><path fill="black" d="m55.87582,58.9208l-11.7522,0c0,-1.51571 0.31466,-2.7472 0.94398,-3.69563c0.34569,-0.50523 0.80661,-1.05922 1.38274,-1.66194c0.57614,-0.60274 1.28968,-1.24979 2.14059,-1.94061c0.75342,-0.61159 1.38939,-1.15672 1.90792,-1.63535c0.51854,-0.47865 0.93513,-0.92792 1.24979,-1.34951c0.31466,-0.42104 0.54068,-0.83541 0.67807,-1.24313s0.20608,-0.84649 0.20608,-1.31626c0,-0.74455 -0.20608,-1.32293 -0.61824,-1.73509c-0.41216,-0.41216 -1.00825,-0.61824 -1.78825,-0.61824c-0.3191,0 -0.62489,0.06426 -0.9174,0.1928c-0.2925,0.12851 -0.55177,0.32131 -0.77779,0.57836c-0.22603,0.25704 -0.41438,0.57393 -0.56507,0.95063c-0.15069,0.37671 -0.24375,0.81768 -0.2792,1.32291l-3.21754,0c0.07092,-0.85977 0.25705,-1.64201 0.55841,-2.34668s0.70245,-1.30296 1.20326,-1.7949c0.5008,-0.49194 1.09246,-0.87307 1.77496,-1.14342c0.68196,-0.27035 1.43592,-0.40551 2.26026,-0.40551c0.88637,0 1.67691,0.12852 2.37326,0.38556c0.6958,0.25705 1.2786,0.61161 1.74837,1.06366c0.46978,0.45205 0.82875,0.98386 1.07695,1.59547c0.24818,0.6116 0.37227,1.27638 0.37227,1.99434c0,0.66478 -0.08864,1.27638 -0.26591,1.83478c-0.17728,0.55843 -0.44318,1.09025 -0.79773,1.59548c-0.33683,0.46091 -0.83762,1.03705 -1.5024,1.72842c-0.66478,0.69138 -1.48024,1.44036 -2.44639,2.24696c-0.28364,0.23932 -0.64706,0.56063 -1.09024,0.96394c-0.44319,0.40329 -0.87751,0.90186 -1.30297,1.49575l7.44499,0l0,2.93723l-0.00056,0z"></path></g><g id="shuzi_b_1" transform="translate(-50,-50)"><rect height="17.9" width="11.1" y="41.05" x="44.45" stroke-width="0" fill="#ffffff"></rect><path fill="black" d="m51.67429,58.96851l-3.22071,0l0,-12.75941c-0.95127,0.34427 -2.26945,0.5164 -3.95398,0.5164l0,-2.70432c2.64486,0 4.15782,-0.99656 4.53833,-2.98969l2.63636,0l0,17.93701l0,0.00001z"></path></g><g id="xiaojiexian" transform="translate(-50,-50)"><rect fill="#ffffff" stroke-width="0" x="45.05" y="35.85" width="9.9" height="28.4"></rect><rect height="29" width="1.5" y="35.5" x="49.25" stroke-width="null" fill="#1b1b1b"></rect></g><g id="yanyinfu" transform="translate(-50,-50)"><rect height="17.9" width="11.1" y="41.05" x="44.45" stroke-width="0" fill="#ffffff"></rect><rect height="3.2" width="11" y="48.4" x="44.5" stroke-width="null" fill="#1b1b1b"></rect></g><g id="jieshufu" transform="translate(-50,-50)"><rect fill="#ffffff" stroke-width="0" x="42.45" y="35.65" width="11.7" height="28.4"></rect><rect height="29" width="1" y="35.5" x="45.65" stroke-width="null" fill="#1b1b1b"></rect><rect height="29" width="2.4" y="35.5" x="48.35" stroke-width="null" fill="#1b1b1b"></rect></g></defs>
<text x="420" y="110" dy="30.078" text-anchor="middle" fill="#1b1b1b" style="font-weight:bold;" font-size="36" font-family="Microsoft YaHei">玛丽有只小羊羔</text>
<use x="80" y="176" xlink:href="#diaohao_fu" xmlns:xlink="http://www.w3.org/1999/xlink"></use>
<use x="120" y="176" xlink:href="#diaohao_zimu_c" code="C" data-diaohao="true" xmlns:xlink="http://www.w3.org/1999/xlink"></use>
<use x="130" y="176" xlink:href="#paihao_xian" xmlns:xlink="http://www.w3.org/1999/xlink"></use>
<use x="140" y="164" xlink:href="#shuzi_b_bian_4" xmlns:xlink="http://www.w3.org/1999/xlink"></use>
<use x="140" y="188" xlink:href="#shuzi_b_bian_4" fill="#414141" xmlns:xlink="http://www.w3.org/1999/xlink"></use>
<use x="83" y="236" xlink:href="#shuzi_b_3" time="1" audio="3" notepos="0_1_1" code="3" xmlns:xlink="http://www.w3.org/1999/xlink"></use>
<use x="131.41860465116" y="236" xlink:href="#shuzi_b_2" time="1" audio="2" notepos="0_1_2" code="2" xmlns:xlink="http://www.w3.org/1999/xlink"></use>
<use x="179.83720930233" y="236" xlink:href="#shuzi_b_1" time="1" audio="1" notepos="0_1_3" code="1" xmlns:xlink="http://www.w3.org/1999/xlink"></use>
<use x="228.25581395349" y="236" xlink:href="#shuzi_b_2" time="1" audio="2" notepos="0_1_4" code="2" xmlns:xlink="http://www.w3.org/1999/xlink"></use>
<use x="273.44651162791" y="236" xlink:href="#xiaojiexian" notepos="0_1_5" time="0" audio="" code="|" xmlns:xlink="http://www.w3.org/1999/xlink"></use>
<use x="318.63720930233" y="236" xlink:href="#shuzi_b_3" time="1" audio="3" notepos="0_1_6" code="3" xmlns:xlink="http://www.w3.org/1999/xlink"></use>
<use x="367.05581395349" y="236" xlink:href="#shuzi_b_3" time="1" audio="3" notepos="0_1_7" code="3" xmlns:xlink="http://www.w3.org/1999/xlink"></use>
<use x="415.47441860465" y="236" xlink:href="#shuzi_b_3" time="1" audio="3" notepos="0_1_8" code="3" xmlns:xlink="http://www.w3.org/1999/xlink"></use>
<use x="463.89302325581" y="236" xlink:href="#yanyinfu" time="1" audio="" notepos="0_1_9" code="-" xmlns:xlink="http://www.w3.org/1999/xlink"></use>
<use x="509.08372093023" y="236" xlink:href="#xiaojiexian" notepos="0_1_10" time="0" audio="" code="|" xmlns:xlink="http://www.w3.org/1999/xlink"></use>
<use x="554.27441860465" y="236" xlink:href="#shuzi_b_2" time="1" audio="2" notepos="0_1_11" code="2" xmlns:xlink="http://www.w3.org/1999/xlink"></use>
<use x="602.69302325581" y="236" xlink:href="#shuzi_b_2" time="1" audio="2" notepos="0_1_12" code="2" xmlns:xlink="http://www.w3.org/1999/xlink"></use>
<use x="651.11162790698" y="236" xlink:href="#shuzi_b_2" time="1" audio="2" notepos="0_1_13" code="2" xmlns:xlink="http://www.w3.org/1999/xlink"></use>
<use x="699.53023255814" y="236" xlink:href="#yanyinfu" time="1" audio="" notepos="0_1_14" code="-" xmlns:xlink="http://www.w3.org/1999/xlink"></use>
<use x="763" y="236" xlink:href="#xiaojiexian" notepos="0_1_15" time="0" audio="" code="|" xmlns:xlink="http://www.w3.org/1999/xlink"></use>
<use x="83" y="314" xlink:href="#shuzi_b_3" time="1" audio="3" notepos="0_2_1" code="3" xmlns:xlink="http://www.w3.org/1999/xlink"></use>
<use x="131.41860465116" y="314" xlink:href="#shuzi_b_3" time="1" audio="3" notepos="0_2_2" code="3" xmlns:xlink="http://www.w3.org/1999/xlink"></use>
<use x="179.83720930233" y="314" xlink:href="#shuzi_b_3" time="1" audio="3" notepos="0_2_3" code="3" xmlns:xlink="http://www.w3.org/1999/xlink"></use>
<use x="228.25581395349" y="314" xlink:href="#shuzi_b_3" time="1" audio="3" notepos="0_2_4" code="3" xmlns:xlink="http://www.w3.org/1999/xlink"></use>
<use x="273.44651162791" y="314" xlink:href="#xiaojiexian" notepos="0_2_5" time="0" audio="" code="|" xmlns:xlink="http://www.w3.org/1999/xlink"></use>
<use x="318.63720930233" y="314" xlink:href="#shuzi_b_3" time="1" audio="3" notepos="0_2_6" code="3" xmlns:xlink="http://www.w3.org/1999/xlink"></use>
<use x="367.05581395349" y="314" xlink:href="#shuzi_b_2" time="1" audio="2" notepos="0_2_7" code="2" xmlns:xlink="http://www.w3.org/1999/xlink"></use>
<use x="415.47441860465" y="314" xlink:href="#shuzi_b_1" time="1" audio="1" notepos="0_2_8" code="1" xmlns:xlink="http://www.w3.org/1999/xlink"></use>
<use x="463.89302325581" y="314" xlink:href="#shuzi_b_2" time="1" audio="2" notepos="0_2_9" code="2" xmlns:xlink="http://www.w3.org/1999/xlink"></use>
<use x="509.08372093023" y="314" xlink:href="#xiaojiexian" notepos="0_2_10" time="0" audio="" code="|" xmlns:xlink="http://www.w3.org/1999/xlink"></use>
<use x="554.27441860465" y="314" xlink:href="#shuzi_b_3" time="1" audio="3" notepos="0_2_11" code="3" xmlns:xlink="http://www.w3.org/1999/xlink"></use>
<use x="602.69302325581" y="314" xlink:href="#shuzi_b_3" time="1" audio="3" notepos="0_2_12" code="3" xmlns:xlink="http://www.w3.org/1999/xlink"></use>
<use x="651.11162790698" y="314" xlink:href="#shuzi_b_3" time="1" audio="3" notepos="0_2_13" code="3" xmlns:xlink="http://www.w3.org/1999/xlink"></use>
<use x="699.53023255814" y="314" xlink:href="#shuzi_b_3" time="1" audio="3" notepos="0_2_14" code="3" xmlns:xlink="http://www.w3.org/1999/xlink"></use>
<use x="763" y="314" xlink:href="#xiaojiexian" notepos="0_2_15" time="0" audio="" code="|" xmlns:xlink="http://www.w3.org/1999/xlink"></use>
<use x="83" y="392" xlink:href="#shuzi_b_2" time="1" audio="2" notepos="0_3_1" code="2" xmlns:xlink="http://www.w3.org/1999/xlink"></use>
<use x="156.30985915493" y="392" xlink:href="#shuzi_b_2" time="1" audio="2" notepos="0_3_2" code="2" xmlns:xlink="http://www.w3.org/1999/xlink"></use>
<use x="229.61971830986" y="392" xlink:href="#shuzi_b_3" time="1" audio="3" notepos="0_3_3" code="3" xmlns:xlink="http://www.w3.org/1999/xlink"></use>
<use x="302.92957746479" y="392" xlink:href="#shuzi_b_2" time="1" audio="2" notepos="0_3_4" code="2" xmlns:xlink="http://www.w3.org/1999/xlink"></use>
<use x="371.35211267606" y="392" xlink:href="#xiaojiexian" notepos="0_3_5" time="0" audio="" code="|" xmlns:xlink="http://www.w3.org/1999/xlink"></use>
<use x="439.77464788732" y="392" xlink:href="#shuzi_b_1" time="1" audio="1" notepos="0_3_6" code="1" xmlns:xlink="http://www.w3.org/1999/xlink"></use>
<use x="513.08450704225" y="392" xlink:href="#yanyinfu" time="1" audio="" notepos="0_3_7" code="-" xmlns:xlink="http://www.w3.org/1999/xlink"></use>
<use x="586.39436619718" y="392" xlink:href="#yanyinfu" time="1" audio="" notepos="0_3_8" code="-" xmlns:xlink="http://www.w3.org/1999/xlink"></use>
<use x="659.70422535211" y="392" xlink:href="#yanyinfu" time="1" audio="" notepos="0_3_9" code="-" xmlns:xlink="http://www.w3.org/1999/xlink"></use>
<use x="763" y="392" xlink:href="#jieshufu" notepos="0_3_10" time="0" audio="" code="|j" xmlns:xlink="http://www.w3.org/1999/xlink"></use>
<g id="custom">
</g></svg>
